<svg width="60" height="60" viewBox="0 0 60 60" fill="none" xmlns="http://www.w3.org/2000/svg">
<path d="M15.3554 28.2108C11.9361 28.2108 8.70904 26.8723 6.27711 24.4337C3.84518 22.0018 2.5 18.7747 2.5 15.3554C2.5 11.9361 3.83855 8.70904 6.27711 6.27711C8.70904 3.84518 11.9361 2.5 15.3554 2.5C18.7747 2.5 22.0018 3.83855 24.4337 6.27711C26.8657 8.70904 28.2108 11.9361 28.2108 15.3554C28.2108 18.7747 26.8723 22.0018 24.4337 24.4337C22.0018 26.8723 18.7813 28.2108 15.3554 28.2108ZM15.3554 5.68072C10.0211 5.68072 5.68072 10.0211 5.68072 15.3554C5.68072 20.6898 10.0211 25.0301 15.3554 25.0301C20.6898 25.0301 25.0301 20.6898 25.0301 15.3554C25.0301 10.0211 20.6898 5.68072 15.3554 5.68072ZM15.3554 57.5C11.9361 57.5 8.70904 56.1614 6.27711 53.7229C3.84518 51.291 2.5 48.0639 2.5 44.6446C2.5 41.2253 3.83855 37.9982 6.27711 35.5663C8.71566 33.1343 11.9361 31.7892 15.3554 31.7892C18.7747 31.7892 22.0018 33.1277 24.4337 35.5663C26.8657 38.0048 28.2108 41.2253 28.2108 44.6446C28.2108 48.0639 26.8723 51.291 24.4337 53.7229C22.0018 56.1614 18.7813 57.5 15.3554 57.5ZM15.3554 34.9699C10.0211 34.9699 5.68072 39.3102 5.68072 44.6446C5.68072 49.9789 10.0211 54.3193 15.3554 54.3193C20.6898 54.3193 25.0301 49.9789 25.0301 44.6446C25.0301 39.3102 20.6898 34.9699 15.3554 34.9699ZM49.2831 57.5H40.006C35.4735 57.5 31.7892 53.8157 31.7892 49.2831V40.006C31.7892 39.1247 32.4982 38.4157 33.3795 38.4157C34.2608 38.4157 34.9699 39.1247 34.9699 40.006V49.2831C34.9699 52.0596 37.2295 54.3193 40.006 54.3193H49.2831C52.0596 54.3193 54.3193 52.0596 54.3193 49.2831V40.006C54.3193 37.2295 52.0596 34.9699 49.2831 34.9699H40.006C39.1247 34.9699 38.4157 34.2608 38.4157 33.3795C38.4157 32.4982 39.1247 31.7892 40.006 31.7892H49.2831C53.8157 31.7892 57.5 35.4735 57.5 40.006V49.2831C57.5 53.8157 53.8157 57.5 49.2831 57.5ZM44.6446 28.2108C41.2253 28.2108 37.9982 26.8723 35.5663 24.4337C33.1343 22.0018 31.7892 18.7747 31.7892 15.3554C31.7892 11.9361 33.1277 8.70904 35.5663 6.27711C37.9982 3.84518 41.2253 2.5 44.6446 2.5C48.0639 2.5 51.291 3.83855 53.7229 6.27711C56.1548 8.71566 57.5 11.9361 57.5 15.3554C57.5 18.7747 56.1614 22.0018 53.7229 24.4337C51.2843 26.8657 48.0705 28.2108 44.6446 28.2108ZM44.6446 5.68072C39.3102 5.68072 34.9699 10.0211 34.9699 15.3554C34.9699 20.6898 39.3102 25.0301 44.6446 25.0301C49.9789 25.0301 54.3193 20.6898 54.3193 15.3554C54.3193 10.0211 49.9789 5.68072 44.6446 5.68072Z" fill="#F6F6F6"/>
</svg>
