<svg width="60" height="60" viewBox="0 0 60 60" fill="none" xmlns="http://www.w3.org/2000/svg">
<path d="M26.0867 52.7786C26.1376 52.8068 26.1913 52.8323 26.2479 52.8549L26.327 52.886C27.1498 53.2593 27.9161 53.5788 28.671 53.8672C28.7559 53.8983 28.8435 53.9237 28.9283 53.9407L29.409 54.1358C29.5956 54.2121 29.7936 54.2489 29.9915 54.2489C30.1922 54.2489 30.393 54.2093 30.5824 54.133L31.0405 53.9435C31.1338 53.9265 31.2243 53.9011 31.3148 53.8672C32.279 53.4996 33.2403 53.0924 34.1706 52.6542C34.2158 52.6344 34.2582 52.6146 34.3006 52.592C41.8727 49.0067 45.9613 44.1405 48.0593 40.6824C49.4844 38.3328 50.2394 35.624 50.2394 32.8474V14.6466C50.2394 14.2112 50.0584 13.7984 49.7361 13.5043C49.4477 13.2413 49.0744 13.0971 48.6871 13.0943C48.6418 13.0943 48.5994 13.0971 48.5542 13.1C48.2007 13.1311 47.836 13.1452 47.4712 13.1452C39.5231 13.1452 31.0744 6.16406 30.9896 6.09337C30.7012 5.85303 30.3478 5.73145 29.9943 5.73145C29.6409 5.73145 29.2874 5.85303 28.999 6.09337C28.8746 6.19799 20.426 13.1452 12.5174 13.1452C12.1498 13.1452 11.7851 13.1311 11.4345 13.1C11.3892 13.0971 11.3468 13.0943 11.3016 13.0943C10.9142 13.0943 10.541 13.2385 10.2526 13.5043C9.93306 13.7984 9.74927 14.214 9.74927 14.6466V32.788C9.74927 35.6297 10.524 38.395 11.9915 40.7842C14.1376 44.2904 18.328 49.2074 26.0867 52.7786ZM11.2987 14.6466C11.7031 14.6805 12.1074 14.6975 12.5146 14.6975C21.1187 14.6975 29.9915 7.28375 29.9915 7.28375C29.9915 7.28375 38.8643 14.6975 47.4684 14.6975C47.8756 14.6975 48.2799 14.6805 48.6842 14.6466V32.8474C48.6842 35.3243 48.0169 37.7588 46.7304 39.8766C44.7172 43.1961 40.8124 47.805 33.5683 51.2206V51.2234L33.5429 51.2347C32.6635 51.6476 31.7389 52.0434 30.7606 52.4167V52.3799L29.9943 52.6966L29.2281 52.3855V52.4167C28.4307 52.1113 27.6729 51.7918 26.9434 51.4581L26.836 51.4157V51.4129C19.3911 48.0142 15.3817 43.346 13.3119 39.9727C11.9858 37.8125 11.2987 35.3215 11.2987 32.788V14.6466Z" fill="#F6F6F6"/>
<path d="M24.7775 40.2695C25.0773 40.5494 25.4562 40.688 25.8379 40.688C26.2365 40.688 26.6324 40.5353 26.9349 40.2328L43.0179 24.1498C43.623 23.5447 43.623 22.5607 43.0179 21.9557L40.8068 19.7445C40.5155 19.4533 40.1225 19.2893 39.7097 19.2893C39.2969 19.2893 38.9038 19.4533 38.6126 19.7445L25.7276 32.6295L21.2545 28.4476C20.9661 28.179 20.5872 28.0292 20.1941 28.0292C20.1772 28.0292 20.1602 28.0292 20.1404 28.0292C19.7304 28.0433 19.3402 28.2186 19.0603 28.5212L16.9255 30.803C16.3402 31.4279 16.3742 32.4118 16.999 32.9971L24.7775 40.2695ZM20.1941 29.5843L25.7644 34.7898L39.7125 20.8416L41.9236 23.0527L25.8407 39.1357L18.0594 31.8661L20.1941 29.5843Z" fill="#F6F6F6"/>
</svg>
